/* XPM */
static char * arrowdown_xpm[] = {
"32 32 2 1",
" 	c None",
".	c #AF9466",
"................................",
"................................",
"............................... ",
"............................... ",
" .............................  ",
" .............................  ",
"  ...........................   ",
"  ...........................   ",
"   .........................    ",
"   .........................    ",
"    .......................     ",
"    .......................     ",
"     .....................      ",
"     .....................      ",
"      ...................       ",
"      ...................       ",
"       .................        ",
"       .................        ",
"        ...............         ",
"        ...............         ",
"         .............          ",
"         .............          ",
"          ...........           ",
"          ...........           ",
"           .........            ",
"           .........            ",
"            .......             ",
"            .......             ",
"             .....              ",
"             .....              ",
"              ...               ",
"               .                "};
