/* XPM */
static char * connection_disconnected_xpm[] = {
"16 16 92 2",
"  	c None",
". 	c #D87C63",
"+ 	c #CE6F55",
"@ 	c #CF6F55",
"# 	c #CF7055",
"$ 	c #CB6B51",
"% 	c #C16147",
"& 	c #C06046",
"* 	c #C06045",
"= 	c #CF6E54",
"- 	c #DFB0A2",
"; 	c #BD5B40",
"> 	c #BE5D42",
", 	c #CA7B66",
"' 	c #CB7D68",
") 	c #CC6649",
"! 	c #FAF3F2",
"~ 	c #E7C3B9",
"{ 	c #BE5B41",
"] 	c #CB7F6A",
"^ 	c #FDFBFA",
"/ 	c #CF8774",
"( 	c #CB6448",
"_ 	c #F5E4DF",
": 	c #FFFFFF",
"< 	c #EACCC3",
"[ 	c #C56E55",
"} 	c #D69988",
"| 	c #FCF9F8",
"1 	c #CC7E69",
"2 	c #CC6549",
"3 	c #F0D4CC",
"4 	c #F7EBE8",
"5 	c #FCF8F8",
"6 	c #FAF4F2",
"7 	c #C97862",
"8 	c #CC684D",
"9 	c #E9C1B5",
"0 	c #F8EEEC",
"a 	c #C7735D",
"b 	c #CD6B50",
"c 	c #E1A99B",
"d 	c #F5E6E2",
"e 	c #C56D55",
"f 	c #CE6E54",
"g 	c #C6654B",
"h 	c #D18D7A",
"i 	c #F2DFD9",
"j 	c #C3674E",
"k 	c #CD6E54",
"l 	c #C5654B",
"m 	c #BE5D43",
"n 	c #CA7A64",
"o 	c #F0D9D3",
"p 	c #C06147",
"q 	c #BF5F44",
"r 	c #BF5F45",
"s 	c #CE6C52",
"t 	c #D68B77",
"u 	c #E6C4BA",
"v 	c #E4BCB1",
"w 	c #E7C3BA",
"x 	c #F8EEEB",
"y 	c #E4BBB1",
"z 	c #E4BDB2",
"A 	c #DEAB9E",
"B 	c #CA6C53",
"C 	c #E4AD9F",
"D 	c #FFFEFF",
"E 	c #FEFEFE",
"F 	c #F9F0ED",
"G 	c #D17A63",
"H 	c #CE6B4F",
"I 	c #E2A999",
"J 	c #FCF6F5",
"K 	c #F1D6CF",
"L 	c #CD6D52",
"M 	c #CE6B50",
"N 	c #D88B75",
"O 	c #F8ECE9",
"P 	c #FFFEFE",
"Q 	c #E7BAAE",
"R 	c #CF7157",
"S 	c #D27B64",
"T 	c #F8EAE6",
"U 	c #DFA291",
"V 	c #CD684D",
"W 	c #CE6D52",
"X 	c #D07158",
"Y 	c #EBC5BB",
"Z 	c #DC9785",
"` 	c #CF6F56",
". + @ @ # $ % & & & & * & & & & ",
"+ @ @ @ = - ; * & & > , ' & & & ",
"@ @ @ @ ) ! ~ & & { ] ^ / & & & ",
"@ @ @ @ ( _ : < [ } : | 1 & & & ",
"@ @ @ @ 2 3 : : 4 5 : 6 7 & & & ",
"@ @ @ @ 8 9 : : : : : 0 a & & & ",
"@ @ @ @ b c : : : : : d e & & & ",
"@ @ @ f g h : : : : : i j & & & ",
"@ @ k l m n : : : : : o p q r & ",
"@ s t u v w : : : : : x y z A B ",
"@ @ f C D E : : : : : : : F G f ",
"@ @ @ H I J : : : : : : K L = @ ",
"@ @ @ @ M N O : : P : Q R @ @ @ ",
"@ @ @ @ @ @ S T E : U V @ @ @ @ ",
"+ @ @ @ @ @ W X Y Z b ` @ @ @ @ ",
". + @ @ @ @ @ = ` @ @ @ @ @ @ @ "};
