/* XPM */
static char * connection_connected_xpm[] = {
"16 16 109 2",
"  	c None",
". 	c #E3F1B0",
"+ 	c #DAEC9A",
"@ 	c #DFEFA7",
"# 	c #E3F1AF",
"$ 	c #FBFDF6",
"% 	c #CFEA72",
"& 	c #CEE676",
"* 	c #C4E15C",
"= 	c #C2E056",
"- 	c #C2E058",
"; 	c #C2E057",
"> 	c #C3E15A",
", 	c #CAE56D",
"' 	c #D4EA85",
") 	c #F2F9D6",
"! 	c #F7FCE7",
"~ 	c #CDE770",
"{ 	c #C3E05D",
"] 	c #C4E15E",
"^ 	c #C3E15D",
"/ 	c #C8E563",
"( 	c #F5FBE2",
"_ 	c #D6EB89",
": 	c #C4E15D",
"< 	c #C7E45F",
"[ 	c #F0F8D1",
"} 	c #E1F0AD",
"| 	c #C3E15B",
"1 	c #C2E059",
"2 	c #C7E267",
"3 	c #D5EB89",
"4 	c #C9E565",
"5 	c #C5E161",
"6 	c #EBF5CC",
"7 	c #D0E486",
"8 	c #C0DD5A",
"9 	c #C4E15F",
"0 	c #C6E362",
"a 	c #C3E158",
"b 	c #CFE77F",
"c 	c #F1F8DB",
"d 	c #FFFFFF",
"e 	c #E8F3C5",
"f 	c #E0EDAF",
"g 	c #E1EFB1",
"h 	c #E3F0B2",
"i 	c #E3F1B4",
"j 	c #DBEB9D",
"k 	c #C3E05C",
"l 	c #C2E055",
"m 	c #E5F2B6",
"n 	c #C1DF56",
"o 	c #D5E98F",
"p 	c #FCFDF6",
"q 	c #F0F6D7",
"r 	c #BEDA57",
"s 	c #C1DE59",
"t 	c #D3EA81",
"u 	c #C5E15F",
"v 	c #D9EC99",
"w 	c #F0F6D6",
"x 	c #BFDA57",
"y 	c #BFDB57",
"z 	c #C8E26E",
"A 	c #C1E057",
"B 	c #DAEC9C",
"C 	c #FDFEFA",
"D 	c #F2F7DD",
"E 	c #BEDA56",
"F 	c #CBE375",
"G 	c #C6E267",
"H 	c #E9F3C8",
"I 	c #E2EFB4",
"J 	c #E2EFB5",
"K 	c #E2EFB6",
"L 	c #D9EA9E",
"M 	c #BEDB58",
"N 	c #BDDA51",
"O 	c #DDECA5",
"P 	c #CAE567",
"Q 	c #C3E05B",
"R 	c #EEF6D1",
"S 	c #CCE27A",
"T 	c #BAD84A",
"U 	c #BBD94C",
"V 	c #BCD94F",
"W 	c #BFDB58",
"X 	c #C2DE5C",
"Y 	c #E8F4C0",
"Z 	c #C5E160",
"` 	c #C4DF62",
" .	c #BEDB57",
"..	c #BFDC59",
"+.	c #D6E990",
"@.	c #D2EA7F",
"#.	c #C2DF5C",
"$.	c #C1DD59",
"%.	c #E6F2B7",
"&.	c #D2E980",
"*.	c #C1E055",
"=.	c #C0DC59",
"-.	c #BDDA52",
";.	c #C9E26E",
">.	c #DCED9B",
",.	c #E7F4BA",
"'.	c #C7E35F",
").	c #C3E05E",
"!.	c #D9ED92",
"            . + @ #             ",
"    $ % & * = - ; > , ' )       ",
"  ! ~ { ] ] ] ] ] ] ] ^ / (     ",
"  _ * ] ] ] ] : ] ] ] ] : < [   ",
"} | ] ] ] ] 1 2 ] ] ] ] ] ] 3   ",
"4 ] ] ] ] 5 6 7 8 9 9 9 9 ] 0   ",
"a ] ] 1 b c d e f g h i j k l m ",
"^ 9 n o p d d d d d d d q r s t ",
"u 1 v d d d d d d d d d w x y z ",
"{ 9 A B C d d d d d d d D x E F ",
"> ] ] : G d d H I J J K L M N O ",
"P : ] ] : Q R S T U U U V W X   ",
"Y ; ] ] ] : Z `  .W W W W ..+.  ",
"  @.] ] ] ] ] ] #.W W W W $.%.  ",
"    &.*.] ] ] ] ] { =.-.;.>.    ",
"      ,.'.).] ] ] 9 > !.        "};
