/* XPM */
static char * continue_program_xpm[] = {
"32 32 3 1",
" 	c None",
".	c #000000",
"+	c #1B0F0B",
"                                ",
"                                ",
"                                ",
"                                ",
"                                ",
"                                ",
"                                ",
"       .                        ",
"       +++                      ",
"       +++                      ",
"       +++  .                   ",
"       +++  .++                 ",
"       +++  .++                 ",
"       +++  .++  .+             ",
"       +++  .++  .++            ",
"       +++  .++  .++  .+        ",
"       +++  .++  .++  .++       ",
"       +++  .++  ..+  ..        ",
"       +++  .++  ..+            ",
"       +++  .++  ..             ",
"       +++  .++                 ",
"       +++  .+.                 ",
"       +++  .                   ",
"       ++.                      ",
"       .+.                      ",
"       .                        ",
"                                ",
"                                ",
"                                ",
"                                ",
"                                ",
"                                "};
