<svg id="Capa_1" enable-background="new 0 0 511.998 511.998" height="512" viewBox="0 0 511.998 511.998" width="512" xmlns="http://www.w3.org/2000/svg"><g><path d="m510.722 444.473-18.533-27.565c-1.393-2.072-3.727-3.315-6.224-3.315h-200.207v-21.363c16.042-1.827 58.354-7.212 103.628-17.668 4.036-.932 6.552-4.959 5.62-8.996-.932-4.035-4.961-6.555-8.995-5.62-54.131 12.502-103.929 17.63-108.17 18.053h-116.133c-4.142 0-7.5 3.358-7.5 7.5s3.358 7.5 7.5 7.5h109.05v20.594h-191.17v-28.099c0-2.391-1.14-4.638-3.069-6.051l-42.097-30.829c-2.482-1.819-3.964-4.747-3.964-7.831v-19.87c0-5.349 4.352-9.7 9.7-9.7h411.12c5.343 0 9.689 4.351 9.689 9.7v9.74c0 4.002-2.482 7.635-6.168 9.037-12.006 4.55-25.479 8.913-40.044 12.968-3.99 1.111-6.324 5.247-5.214 9.237 1.111 3.989 5.241 6.325 9.237 5.213 15-4.176 28.907-8.682 41.346-13.396 9.476-3.604 15.843-12.872 15.843-23.06v-9.74c0-13.62-11.075-24.7-24.689-24.7h-273.987c.915-42.446 1.314-85.457 1.189-128.104 4.364.053 8.727.105 13.084.143h.066c4.111 0 7.463-3.315 7.498-7.435.036-4.142-3.293-7.529-7.435-7.564-44.981-.389-90.405-1.594-135.013-3.583-5.198-.23-9.624-3.938-10.763-9.018-5.605-24.997-7.304-43.361-6.06-65.498.337-5.988 5.321-10.764 11.348-10.873 40.178-.73 80.654-1.211 120.306-1.429 7.357-.042 14.434-3.168 19.411-8.574 13.051-14.147 22.908-25.055 31.961-35.365 2.185-2.486 5.348-3.911 8.681-3.911h.021c53.011.099 106.857 1.345 160.046 3.703 5.289.231 9.723 3.989 10.782 9.139.977 4.745 1.848 9.556 2.611 14.365l-28.512 11.913c-5.551 2.315-9.866 6.651-12.149 12.211-2.284 5.559-2.264 11.677.055 17.22 3.507 8.402 11.656 13.831 20.762 13.831 2.992 0 5.91-.585 8.67-1.74l15.135-6.321c-.064 16.325-2.029 31.607-6.453 51.319-1.14 5.085-5.561 8.797-10.754 9.027-55.519 2.471-111.884 3.723-167.561 3.723-.438 0-.878 0-1.317 0h-1.32c-4.142 0-7.5 3.358-7.5 7.5s3.358 7.5 7.5 7.5h1.317 1.32c17.819 0 35.712-.142 53.623-.397v4.956c0 10.031 8.16 18.192 18.191 18.192h12.578v20.028l-3.563 1.12c-3.951 1.242-6.147 5.452-4.906 9.403 1.007 3.204 3.964 5.253 7.153 5.253.436 0 .875-.051 1.315-.13v11.806l-3.563 1.12c-3.951 1.242-6.147 5.452-4.906 9.403 1.007 3.204 3.964 5.253 7.153 5.253.436 0 .875-.051 1.315-.13v11.086c0 2.388 1.138 4.633 3.063 6.046 1.303.956 2.86 1.454 4.438 1.454.753 0 1.512-.114 2.248-.345l30.338-9.535c3.125-.982 5.251-3.879 5.251-7.155v-15.723l3.562-1.119c3.951-1.242 6.147-5.452 4.906-9.403-1.144-3.641-4.81-5.785-8.468-5.129v-11.801l3.562-1.119c3.951-1.242 6.147-5.452 4.906-9.403-1.144-3.641-4.81-5.784-8.468-5.129v-5.85h12.58c10.031 0 18.192-8.161 18.192-18.192v-7.976c2.573-.109 5.152-.208 7.722-.322 11.942-.528 22.11-9.054 24.727-20.73 5.242-23.358 7.217-40.917 6.754-60.839l30.521-12.747c3 1.012 6.208 1.569 9.545 1.569 16.513 0 29.946-13.434 29.946-29.946 0-16.513-13.434-29.947-29.946-29.947-11.798 0-22.021 6.86-26.899 16.798l-17.842 7.455c-.651-3.834-1.363-7.66-2.142-11.445-2.446-11.892-12.651-20.569-24.814-21.102-53.396-2.367-107.456-3.618-160.679-3.718-.016 0-.031 0-.047 0-7.648 0-14.917 3.282-19.952 9.012-8.971 10.216-18.752 21.04-31.722 35.099-.912.99-1.991 1.793-3.167 2.406-.13-5.026-.275-10.262-.438-15.824-.355-12.158-8.765-22.831-20.453-25.957-23.627-6.304-47.588-6.305-71.221.001-11.69 3.126-20.104 13.8-20.459 25.955-.172 5.854-.336 11.917-.497 18.368-4.243.071-8.486.144-12.724.221-13.83.253-25.274 11.247-26.05 25.031-1.328 23.638.466 43.158 6.4 69.622 2.619 11.672 12.791 20.193 24.734 20.721 1.986.089 3.981.167 5.97.252-.161 43.407.23 87.496 1.165 131.305h-22.99c-13.62 0-24.7 11.08-24.7 24.7v19.87c0 7.845 3.774 15.295 10.099 19.931l39.031 28.583v24.295h-38.557c-2.497 0-4.831 1.243-6.224 3.315l-18.532 27.566c-.832 1.237-1.276 2.694-1.276 4.184 0 22.411 13.146 57.051 13.706 58.515 1.11 2.903 3.896 4.821 7.005 4.821h109.073c1.989 0 3.897-.79 5.303-2.197l21.731-21.731h198.36l21.73 21.731c1.407 1.407 3.314 2.197 5.304 2.197h109.073c3.108 0 5.896-1.918 7.006-4.821.56-1.464 13.706-36.104 13.706-58.515.001-1.49-.444-2.947-1.275-4.184zm-171.776-194.153-15.338 4.821v-5.505l15.338-4.821zm0-21.228-15.338 4.82v-11.729l15.338-4.821zm0-27.453-15.338 4.82v-15.313h15.338zm30.772-28.685c0 1.76-1.432 3.192-3.192 3.192h-20.022c-.02 0-.039-.003-.058-.003h-30.338c-.02 0-.038.003-.058.003h-20.02c-1.76 0-3.191-1.432-3.191-3.192v-5.196c25.663-.466 51.337-1.184 76.88-2.165v7.361zm18.347-91.148c-.921.385-1.892.58-2.887.58-3.034 0-5.75-1.809-6.921-4.614-.773-1.85-.781-3.888-.021-5.738.761-1.851 2.198-3.294 4.054-4.068l52.057-21.751c.736 5.149 2.784 9.879 5.797 13.839zm75.922-54.791c8.241 0 14.946 6.705 14.946 14.947 0 8.241-6.705 14.946-14.946 14.946-8.242 0-14.947-6.705-14.947-14.946 0-8.242 6.705-14.947 14.947-14.947zm-384.841 4.12c.164-5.582 4.004-10.477 9.337-11.902 21.062-5.621 42.42-5.62 63.479-.001 5.331 1.425 9.167 6.32 9.331 11.905.174 5.919.327 11.461.462 16.778-27.472.18-55.286.483-83.088.908.155-6.198.313-12.042.479-17.688zm56.185 210.911c-.194 8.177-6.888 14.855-14.892 14.888h-.409c-8.027-.033-14.722-6.714-14.923-14.893-.61-24.981-.805-50.351-.625-75.545 10.479.331 20.976.615 31.478.86.17 24.989-.028 50.075-.629 74.69zm-58.348-76.522c4.164.162 8.328.323 12.501.472-.187 25.48.009 51.143.626 76.412.398 16.215 13.792 29.46 29.888 29.525h.471c16.078-.065 29.472-13.313 29.857-29.527.603-24.627.802-49.727.635-74.732 4.174.081 8.346.155 12.517.222.127 42.717-.273 85.802-1.192 128.317h-84.133c-.933-43.6-1.326-87.481-1.17-130.689zm409.038 331.47h-100.702l-21.73-21.731c-1.407-1.407-3.314-2.197-5.304-2.197h-204.573c-1.989 0-3.897.79-5.303 2.197l-21.731 21.731h-100.701c-3.318-9.498-10.273-31.01-10.927-46.124l14.978-22.278h451.942l14.978 22.278c-.654 15.114-7.61 36.626-10.927 46.124z"/><path d="m237.256 136.25c2.409.088 4.835.132 7.262.132s4.853-.044 7.262-.132c12.012-.441 21.767-10.195 22.208-22.208.173-4.723.177-9.507.011-14.222-.43-12.199-10.321-22.09-22.52-22.52-4.718-.166-9.504-.161-14.222.011-12.011.441-21.766 10.195-22.208 22.208-.177 4.819-.177 9.705 0 14.524.441 12.011 10.196 21.766 22.207 22.207zm-7.217-36.181c.154-4.202 3.566-7.614 7.767-7.768 2.227-.082 4.469-.123 6.712-.123 2.149 0 4.299.038 6.434.113 4.437.156 7.9 3.62 8.057 8.056.152 4.357.149 8.78-.011 13.145-.154 4.201-3.566 7.613-7.767 7.767-4.453.164-8.969.164-13.424 0-4.201-.154-7.613-3.566-7.767-7.767-.165-4.453-.165-8.969-.001-13.423z"/><path d="m338.347 114.043c.173-4.709.177-9.495.011-14.222-.428-12.199-10.32-22.091-22.52-22.521-4.717-.165-9.502-.161-14.221.011-12.013.441-21.768 10.195-22.208 22.208-.177 4.819-.177 9.705 0 14.523.44 12.012 10.195 21.767 22.207 22.208 2.409.088 4.836.132 7.262.132s4.853-.044 7.262-.132h-.001c12.013-.441 21.768-10.196 22.208-22.207zm-14.99-.551c-.154 4.201-3.565 7.613-7.767 7.767-.001 0-.001 0-.001 0-4.453.164-8.968.164-13.423 0-4.201-.154-7.612-3.566-7.767-7.767-.163-4.454-.163-8.97 0-13.424.154-4.201 3.565-7.613 7.767-7.767 2.227-.082 4.469-.123 6.711-.123 2.149 0 4.299.038 6.434.113 4.438.156 7.9 3.619 8.057 8.056.153 4.37.149 8.792-.011 13.145z"/></g></svg>