/* XPM */
static char * icon_pause_xpm[] = {
"32 32 2 1",
" 	c None",
".	c #1B0F0B",
"                                ",
"                                ",
"                                ",
"                                ",
"                                ",
"                                ",
"                                ",
"      .......     .......       ",
"      .......     .......       ",
"      .......     .......       ",
"      .......     .......       ",
"      .......     .......       ",
"      .......     .......       ",
"      .......     .......       ",
"      .......     .......       ",
"      .......     .......       ",
"      .......     .......       ",
"      .......     .......       ",
"      .......     .......       ",
"      .......     .......       ",
"      .......     .......       ",
"      .......     .......       ",
"      .......     .......       ",
"      .......     .......       ",
"                                ",
"                                ",
"                                ",
"                                ",
"                                ",
"                                ",
"                                ",
"                                "};
