<?xml version="1.0" encoding="UTF-8" standalone="no"?>
<!-- Generator: Adobe Illustrator 19.0.0, SVG Export Plug-In . SVG Version: 6.00 Build 0)  -->

<svg
   xmlns:dc="http://purl.org/dc/elements/1.1/"
   xmlns:cc="http://creativecommons.org/ns#"
   xmlns:rdf="http://www.w3.org/1999/02/22-rdf-syntax-ns#"
   xmlns:svg="http://www.w3.org/2000/svg"
   xmlns="http://www.w3.org/2000/svg"
   xmlns:sodipodi="http://sodipodi.sourceforge.net/DTD/sodipodi-0.dtd"
   xmlns:inkscape="http://www.inkscape.org/namespaces/inkscape"
   version="1.1"
   id="Capa_1"
   x="0px"
   y="0px"
   viewBox="0 0 512 512"
   style="enable-background:new 0 0 512 512;"
   xml:space="preserve"
   inkscape:version="0.91 r13725"
   sodipodi:docname="print.svg"><title
     id="title4179">3D printer</title><metadata
     id="metadata51"><rdf:RDF><cc:Work
         rdf:about=""><dc:format>image/svg+xml</dc:format><dc:type
           rdf:resource="http://purl.org/dc/dcmitype/StillImage" /><dc:title>3D printer</dc:title><dc:creator><cc:Agent><dc:title>&lt;div&gt;Icons made by &lt;a href=&quot;https://www.flaticon.com/authors/smashicons&quot; title=&quot;Smashicons&quot;&gt;Smashicons&lt;/a&gt; from &lt;a href=&quot;https://www.flaticon.com/&quot; title=&quot;Flaticon&quot;&gt;www.flaticon.com&lt;/a&gt;&lt;/div&gt;</dc:title></cc:Agent></dc:creator></cc:Work></rdf:RDF></metadata><defs
     id="defs49" /><sodipodi:namedview
     pagecolor="#ffffff"
     bordercolor="#666666"
     borderopacity="1"
     objecttolerance="10"
     gridtolerance="10"
     guidetolerance="10"
     inkscape:pageopacity="0"
     inkscape:pageshadow="2"
     inkscape:window-width="1160"
     inkscape:window-height="812"
     id="namedview47"
     showgrid="false"
     inkscape:zoom="0.8257913"
     inkscape:cx="255.59203"
     inkscape:cy="286.67622"
     inkscape:window-x="0"
     inkscape:window-y="33"
     inkscape:window-maximized="0"
     inkscape:current-layer="Capa_1" /><g
     id="g3"><g
       id="g5"><g
         id="g7"><rect
           x="182.857"
           y="45.714"
           width="146.286"
           height="36.571"
           id="rect9" /><path
           d="M20.963,368.391c1.715-1.715,4.041-2.678,6.466-2.677h475.429c5.047-0.005,9.138-4.095,9.143-9.143v-73.143     c-0.005-5.047-4.095-9.138-9.143-9.143H274.286c-2.425,0.001-4.751-0.962-6.466-2.677c-1.715-1.715-2.678-4.041-2.677-6.466V192     h-18.286v91.429c0.005,5.047,4.095,9.138,9.143,9.143h228.571c2.425-0.001,4.751,0.962,6.466,2.677     c1.715,1.715,2.678,4.041,2.677,6.466v36.571c0.001,2.425-0.962,4.751-2.677,6.466c-1.715,1.715-4.041,2.678-6.466,2.677H9.143     c-5.047,0.005-9.138,4.096-9.143,9.143v73.143c0.005,5.047,4.095,9.138,9.143,9.143h475.429c2.425-0.001,4.751,0.962,6.466,2.677     c1.715,1.715,2.678,4.041,2.677,6.466v36.571c0.001,2.425-0.962,4.751-2.677,6.466c-1.715,1.715-4.041,2.678-6.466,2.677H9.143     c-5.049,0-9.143,4.093-9.143,9.143S4.093,512,9.143,512h493.714c5.047-0.005,9.138-4.095,9.143-9.143v-73.143     c-0.005-5.047-4.095-9.138-9.143-9.143H27.429c-2.425,0.001-4.751-0.962-6.466-2.677c-1.715-1.715-2.678-4.041-2.677-6.466     v-36.571C18.285,372.432,19.248,370.106,20.963,368.391z"
           id="path11" /><rect
           x="219.429"
           width="73.143"
           height="27.429"
           id="rect13" /><polygon
           points="268.634,173.714 305.205,100.571 206.795,100.571 243.366,173.714    "
           id="polygon15" /></g></g></g><g
     id="g17" /><g
     id="g19" /><g
     id="g21" /><g
     id="g23" /><g
     id="g25" /><g
     id="g27" /><g
     id="g29" /><g
     id="g31" /><g
     id="g33" /><g
     id="g35" /><g
     id="g37" /><g
     id="g39" /><g
     id="g41" /><g
     id="g43" /><g
     id="g45" /></svg>