/* XPM */
static char * program_run_non_xpm[] = {
"32 32 2 1",
" 	c None",
".	c #94948E",
"..                              ",
"....                            ",
"......                          ",
"........                        ",
"..........                      ",
"............                    ",
"..............                  ",
"................                ",
"..................              ",
"....................            ",
"......................          ",
"........................        ",
"..........................      ",
"............................    ",
"..............................  ",
"............................... ",
"................................",
"............................... ",
"..............................  ",
"............................    ",
"..........................      ",
"........................        ",
"......................          ",
"....................            ",
"..................              ",
"................                ",
"..............                  ",
"............                    ",
"..........                      ",
"........                        ",
"......                          ",
"....                            "};
