/* XPM */
static char * toolbar_one_xpm[] = {
"16 16 3 1",
" 	c None",
".	c #FF9466",
"+	c #000000",
"................",
"................",
"................",
".....+++........",
".......+........",
".......+........",
".......+........",
".......+........",
".......+........",
".......+........",
".......+........",
".....+++++......",
"................",
"................",
"................",
"................"};
